<svg width="14" height="14" viewBox="0 0 14 14" fill="none" xmlns="http://www.w3.org/2000/svg">
<path d="M10.1112 14H2.33334C1.71004 14 1.12409 13.7573 0.683401 13.3165C0.242707 12.8758 0 12.2899 0 11.6667V3.88888C0 3.26562 0.242735 2.67968 0.683428 2.23899C1.12412 1.7983 1.71006 1.55557 2.33336 1.55557H5.44449C5.87407 1.55557 6.22228 1.90377 6.22228 2.33335C6.22228 2.76292 5.87407 3.11113 5.44449 3.11113H2.33334C2.12557 3.11113 1.93027 3.19204 1.78339 3.33892C1.63652 3.4858 1.55558 3.68112 1.55558 3.88888V11.6667C1.55558 11.8744 1.63649 12.0697 1.78339 12.2166C1.93027 12.3635 2.12557 12.4444 2.33334 12.4444H10.1111C10.3189 12.4444 10.5142 12.3635 10.6611 12.2166C10.808 12.0697 10.8889 11.8744 10.8889 11.6666V8.55555C10.8889 8.12597 11.2371 7.7778 11.6667 7.7778C12.0963 7.7778 12.4445 8.126 12.4445 8.55555V11.6667C12.4445 12.2899 12.2018 12.8758 11.7611 13.3166C11.3204 13.7573 10.7344 14 10.1112 14ZM5.44449 9.33331C5.24542 9.33331 5.04637 9.25739 4.89452 9.10552C4.59079 8.80179 4.59079 8.30929 4.89452 8.00556L11.3445 1.55557H8.55562C8.12603 1.55557 7.77785 1.20736 7.77785 0.777783C7.77785 0.348205 8.12603 5.13657e-07 8.55562 5.13657e-07H13.2223C13.4254 -0.00023308 13.6205 0.0792143 13.7656 0.221269L13.7657 0.221324L13.7672 0.222845L13.7677 0.22328L13.7739 0.229502L13.7747 0.230371L13.7755 0.231159C13.7761 0.231673 13.7766 0.232227 13.7772 0.232816L13.7787 0.234365L13.7787 0.234419C13.9208 0.379581 14.0002 0.57466 14 0.777756V5.44442C14 5.874 13.6518 6.2222 13.2222 6.2222C12.7926 6.2222 12.4444 5.874 12.4444 5.44442V2.65552L5.99432 9.10554C5.84258 9.25742 5.64354 9.33331 5.44449 9.33331Z" fill="#A999B3"/>
</svg>
