<svg width="691" height="233" viewBox="0 0 691 233" fill="none" xmlns="http://www.w3.org/2000/svg">
<g opacity="0.1">
<path d="M166.315 0C75.921 0 1.7794 72.7953 0 162.928H72.3622C74.1416 112.577 115.78 72.439 166.433 72.439H426.819C478.54 72.439 520.889 114.834 520.889 166.61V391.052H593.252V166.491C593.252 74.5766 518.754 0 426.937 0H166.315Z" fill="white"/>
<path d="M72.3622 235.367H264.063C296.567 235.367 323.376 261.018 325.511 293.319H72.3622V235.367H0V365.758H330.612C346.508 422.284 398.23 463.491 459.322 463.491V391.052C425.276 391.052 397.874 363.501 397.874 329.538V293.319C396.094 221.236 336.781 162.928 264.063 162.928H72.3622V235.367Z" fill="white"/>
<path d="M593.133 391.052V427.271C593.133 439.622 591.71 451.853 589.1 463.491H513.535C499.418 497.573 465.847 521.442 426.7 521.442H246.981C258.132 506.242 276.281 496.148 296.567 496.148V423.709C260.741 423.709 228.238 437.84 204.038 460.997C173.669 418.603 124.439 391.171 68.8034 391.171V463.61C120.525 463.61 162.874 506.004 162.874 557.781V594H426.937C506.18 594 572.729 538.186 589.337 463.61H589.693C605.589 463.61 618.638 476.673 618.638 492.585H691C691 437.959 647.583 393.427 593.37 391.171L593.133 391.052Z" fill="white"/>
<path d="M394.196 166.491C394.196 184.541 408.787 199.029 426.7 199.029C444.613 199.029 459.204 184.423 459.204 166.491C459.204 148.559 444.613 133.953 426.7 133.953C408.787 133.953 394.196 148.559 394.196 166.491Z" fill="white"/>
</g>
</svg>
