<svg width="31" height="22" viewBox="0 0 31 22" fill="none" xmlns="http://www.w3.org/2000/svg">
<path d="M12.2694 0.377516C11.7518 -0.125676 10.9128 -0.125676 10.3952 0.377516L0.891105 9.61693C0.858807 9.64833 0.828164 9.68134 0.799178 9.71596C0.790068 9.72642 0.782615 9.7377 0.773505 9.74897C0.756113 9.77151 0.738721 9.79325 0.722158 9.8166C0.710563 9.8335 0.700625 9.85122 0.689859 9.86812C0.678264 9.88664 0.66667 9.90516 0.655903 9.92448C0.645137 9.9438 0.636027 9.96313 0.626917 9.98325C0.617808 10.0018 0.608698 10.0195 0.600416 10.038C0.591306 10.0589 0.584681 10.0799 0.577227 10.1008C0.570602 10.1193 0.563148 10.1378 0.557351 10.1564C0.549898 10.1797 0.544928 10.203 0.539131 10.2256C0.53499 10.2433 0.530021 10.2602 0.52588 10.2779C0.519255 10.3085 0.515114 10.3391 0.511801 10.3697C0.510145 10.381 0.508489 10.3914 0.506832 10.4027C0.497723 10.4889 0.497723 10.5758 0.506832 10.662C0.507661 10.6668 0.508489 10.6716 0.509317 10.6765C0.513458 10.7135 0.519255 10.7505 0.526708 10.7868C0.529193 10.7972 0.532506 10.8077 0.53499 10.8182C0.542444 10.8487 0.549897 10.8793 0.559007 10.9091C0.56232 10.9196 0.566461 10.9301 0.570602 10.9413C0.58054 10.9703 0.591306 11.0001 0.603729 11.0291C0.60787 11.0379 0.612011 11.046 0.616151 11.0549C0.63023 11.0846 0.644309 11.1144 0.660045 11.1434C0.663357 11.1491 0.667498 11.1547 0.670811 11.1603C0.688202 11.1909 0.70725 11.2215 0.727127 11.2513C0.728783 11.2537 0.73044 11.2561 0.732096 11.2585C0.777646 11.3238 0.829821 11.3858 0.888621 11.4429L10.3969 20.6864C10.6553 20.9375 10.9948 21.064 11.3336 21.064C11.6723 21.064 12.0118 20.9384 12.2702 20.6864C12.7878 20.1832 12.7878 19.3676 12.2702 18.8644L5.0237 11.8197H29.1749C29.907 11.8197 30.5 11.2432 30.5 10.5315C30.5 9.81982 29.907 9.24336 29.1749 9.24336H5.0237L12.2694 2.19867C12.787 1.69628 12.787 0.880708 12.2694 0.377516Z" fill="white"/>
</svg>
