<svg width="148" height="181" viewBox="0 0 148 181" fill="none" xmlns="http://www.w3.org/2000/svg">
<g opacity="0.1">
<path d="M96.7561 0C44.1682 0 1.03519 42.2801 0 94.6301H42.0979C43.133 65.3858 67.3566 42.0732 96.8251 42.0732H248.308C278.398 42.0732 303.036 66.6963 303.036 96.7683V227.126H345.133V96.6993C345.133 43.3147 301.793 0 248.377 0H96.7561Z" fill="white"/>
<path d="M42.0979 136.703H153.623C172.532 136.703 188.129 151.601 189.371 170.362H42.0979V136.703H0V212.435H192.339C201.587 245.266 231.676 269.199 267.218 269.199V227.126C247.411 227.126 231.469 211.125 231.469 191.398V170.362C230.434 128.496 195.928 94.6301 153.623 94.6301H42.0979V136.703Z" fill="white"/>
<path d="M345.064 227.126V248.163C345.064 255.336 344.236 262.44 342.718 269.199H298.757C290.544 288.994 271.014 302.858 248.239 302.858H143.685C150.172 294.029 160.731 288.167 172.532 288.167V246.094C151.69 246.094 132.781 254.301 118.702 267.751C101.035 243.128 72.3945 227.195 40.0275 227.195V269.268C70.1171 269.268 94.7547 293.891 94.7547 323.963V345H248.377C294.478 345 333.194 312.583 342.856 269.268H343.063C352.311 269.268 359.902 276.855 359.902 286.098H402C402 254.37 376.741 228.506 345.202 227.195L345.064 227.126Z" fill="white"/>
<path d="M229.33 96.6993C229.33 107.183 237.818 115.598 248.239 115.598C258.66 115.598 267.149 107.114 267.149 96.6993C267.149 86.2845 258.66 77.8009 248.239 77.8009C237.818 77.8009 229.33 86.2845 229.33 96.6993Z" fill="white"/>
</g>
</svg>
