<svg width="20" height="13" viewBox="0 0 20 13" fill="none" xmlns="http://www.w3.org/2000/svg">
<path d="M14.8214 0.534096C14.5641 0.276784 14.1469 0.276784 13.8896 0.534096L9.69643 4.72723C9.43912 4.98455 9.43912 5.40173 9.69643 5.65904C9.95374 5.91635 10.3709 5.91635 10.6282 5.65904L14.3555 1.93181L18.0827 5.65904C18.34 5.91635 18.7572 5.91635 19.0145 5.65904C19.2718 5.40173 19.2718 4.98455 19.0145 4.72723L14.8214 0.534096ZM4.88956 12.4659C5.14688 12.7232 5.56406 12.7232 5.82137 12.4659L10.0145 8.27279C10.2718 8.01548 10.2718 7.5983 10.0145 7.34099C9.7572 7.08367 9.34001 7.08367 9.0827 7.34099L5.35547 11.0682L1.62823 7.34099C1.37092 7.08367 0.953738 7.08367 0.696426 7.34099C0.439115 7.5983 0.439115 8.01548 0.696426 8.27279L4.88956 12.4659ZM15.0144 12L15.0144 1L13.6966 1L13.6966 12H15.0144ZM4.69658 1.00003V12H6.01436V1.00003H4.69658Z" fill="#A999B3"/>
</svg>
