<svg width="145" height="173" viewBox="0 0 145 173" fill="none" xmlns="http://www.w3.org/2000/svg">
<g opacity="0.05">
<path d="M57.0427 0C26.0395 0 0.6103 25.123 0 56.2295H24.8189C25.4292 38.8525 39.7102 25 57.0834 25H146.391C164.13 25 178.655 39.6311 178.655 57.5V134.959H203.474V57.459C203.474 25.7377 177.923 0 146.431 0H57.0427Z" fill="#FD3657"/>
<path d="M24.8189 81.2295H90.5686C101.717 81.2295 110.912 90.082 111.644 101.23H24.8189V81.2295H0V126.23H113.394C118.846 145.738 136.585 159.959 157.539 159.959V134.959C145.862 134.959 136.463 125.451 136.463 113.73V101.23C135.853 76.3525 115.51 56.2295 90.5686 56.2295H24.8189V81.2295Z" fill="#FD3657"/>
<path d="M203.433 134.959V147.459C203.433 151.721 202.945 155.943 202.05 159.959H176.133C171.291 171.721 159.777 179.959 146.35 179.959H84.7097C88.5342 174.713 94.7593 171.229 101.717 171.229V146.23C89.4294 146.23 78.2812 151.107 69.9811 159.098C59.5653 144.467 42.6803 135 23.5983 135V160C41.3377 160 55.8628 174.631 55.8628 192.5V205H146.431C173.61 205 196.435 185.738 202.131 160H202.254C207.706 160 212.181 164.508 212.181 170H237C237 151.148 222.109 135.779 203.515 135L203.433 134.959Z" fill="#FD3657"/>
<path d="M135.202 57.459C135.202 63.6885 140.206 68.6885 146.35 68.6885C152.494 68.6885 157.498 63.6475 157.498 57.459C157.498 51.2705 152.494 46.2295 146.35 46.2295C140.206 46.2295 135.202 51.2705 135.202 57.459Z" fill="#FD3657"/>
</g>
</svg>
