<svg width="20" height="22" viewBox="0 0 20 22" fill="none" xmlns="http://www.w3.org/2000/svg">
<path d="M13.9385 22H6.06154C5.27346 21.9881 4.51872 21.6653 3.94825 21.0963C3.37778 20.5272 3.03363 19.7538 2.98462 18.9307L2.05128 4.07805C2.0465 3.97036 2.06216 3.86275 2.09737 3.76144C2.13258 3.66013 2.18664 3.56712 2.25641 3.48781C2.32829 3.4056 2.41532 3.33946 2.51226 3.29335C2.60921 3.24725 2.71406 3.22213 2.82051 3.21951H17.1795C17.285 3.21927 17.3894 3.24172 17.4862 3.28549C17.583 3.32925 17.6702 3.39338 17.7424 3.4739C17.8145 3.55442 17.8701 3.6496 17.9056 3.75353C17.9411 3.85747 17.9558 3.96793 17.9487 4.07805L17.0564 18.9307C17.0069 19.7612 16.6569 20.5407 16.0778 21.1108C15.4986 21.6809 14.7337 21.9989 13.9385 22ZM3.68205 4.82927L4.4718 18.8341C4.49789 19.2565 4.67683 19.6525 4.97218 19.9416C5.26754 20.2307 5.6571 20.3911 6.06154 20.3902H13.9385C14.3422 20.3886 14.7304 20.2273 15.0252 19.9387C15.3201 19.6501 15.4997 19.2555 15.5282 18.8341L16.359 4.88293L3.68205 4.82927Z" fill="#FD3657"/>
<path d="M19.2308 4.82927H0.769231C0.565218 4.82927 0.369561 4.74447 0.225302 4.59353C0.0810436 4.44258 0 4.23786 0 4.02439C0 3.81092 0.0810436 3.6062 0.225302 3.45526C0.369561 3.30431 0.565218 3.21951 0.769231 3.21951H19.2308C19.4348 3.21951 19.6304 3.30431 19.7747 3.45526C19.919 3.6062 20 3.81092 20 4.02439C20 4.23786 19.919 4.44258 19.7747 4.59353C19.6304 4.74447 19.4348 4.82927 19.2308 4.82927Z" fill="#FD3657"/>
<path d="M13.0769 4.82927H6.92308C6.71989 4.82649 6.52577 4.7408 6.38209 4.59045C6.2384 4.44011 6.1565 4.23699 6.15385 4.02439V2.09268C6.16685 1.54195 6.38174 1.01754 6.75403 0.627994C7.12632 0.23845 7.62751 0.0136045 8.15385 0H11.8462C12.3813 0.0140017 12.8899 0.2463 13.2636 0.647309C13.6373 1.04832 13.8463 1.58627 13.8462 2.14634V4.02439C13.8435 4.23699 13.7616 4.44011 13.6179 4.59045C13.4742 4.7408 13.2801 4.82649 13.0769 4.82927ZM7.69231 3.21951H12.3077V2.14634C12.3077 2.01826 12.2591 1.89543 12.1725 1.80486C12.086 1.71429 11.9686 1.66341 11.8462 1.66341H8.15385C8.03144 1.66341 7.91404 1.71429 7.82749 1.80486C7.74093 1.89543 7.69231 2.01826 7.69231 2.14634V3.21951ZM13.0769 17.7073C12.8737 17.7045 12.6796 17.6188 12.5359 17.4685C12.3922 17.3182 12.3103 17.115 12.3077 16.9024V8.31707C12.3077 8.10361 12.3887 7.89888 12.533 7.74794C12.6773 7.597 12.8729 7.5122 13.0769 7.5122C13.2809 7.5122 13.4766 7.597 13.6209 7.74794C13.7651 7.89888 13.8462 8.10361 13.8462 8.31707V16.9024C13.8435 17.115 13.7616 17.3182 13.6179 17.4685C13.4742 17.6188 13.2801 17.7045 13.0769 17.7073ZM6.92308 17.7073C6.71989 17.7045 6.52577 17.6188 6.38209 17.4685C6.2384 17.3182 6.1565 17.115 6.15385 16.9024V8.31707C6.15385 8.10361 6.23489 7.89888 6.37915 7.74794C6.52341 7.597 6.71906 7.5122 6.92308 7.5122C7.12709 7.5122 7.32275 7.597 7.46701 7.74794C7.61126 7.89888 7.69231 8.10361 7.69231 8.31707V16.9024C7.68965 17.115 7.60775 17.3182 7.46407 17.4685C7.32038 17.6188 7.12626 17.7045 6.92308 17.7073ZM10 17.7073C9.79681 17.7045 9.6027 17.6188 9.45901 17.4685C9.31532 17.3182 9.23343 17.115 9.23077 16.9024V8.31707C9.23077 8.10361 9.31181 7.89888 9.45607 7.74794C9.60033 7.597 9.79599 7.5122 10 7.5122C10.204 7.5122 10.3997 7.597 10.5439 7.74794C10.6882 7.89888 10.7692 8.10361 10.7692 8.31707V16.9024C10.7666 17.115 10.6847 17.3182 10.541 17.4685C10.3973 17.6188 10.2032 17.7045 10 17.7073Z" fill="#FD3657"/>
</svg>
