<svg width="28" height="24" viewBox="0 0 28 24" fill="none" xmlns="http://www.w3.org/2000/svg">
<path d="M22.1667 4.36364H19.7435C19.5488 3.33351 19.0411 2.37757 18.281 1.60998C17.5209 0.842386 16.5406 0.295596 15.4572 0.034909C15.1576 -0.0371334 14.8398 0.00503168 14.5735 0.152128C14.3073 0.299225 14.1144 0.539204 14.0373 0.819273C13.9603 1.09934 14.0054 1.39656 14.1627 1.64554C14.32 1.89452 14.5767 2.07487 14.8762 2.14691C15.6276 2.32839 16.2932 2.73833 16.7682 3.31223C17.2431 3.88612 17.5006 4.5914 17.5 5.31709V17.4545H4.66667C3.37983 17.4545 2.33333 16.476 2.33333 15.2727V10.9091H5.25C5.55942 10.9091 5.85617 10.7942 6.07496 10.5896C6.29375 10.385 6.41667 10.1075 6.41667 9.81818C6.41667 9.52885 6.29375 9.25138 6.07496 9.04679C5.85617 8.84221 5.55942 8.72727 5.25 8.72727H2.33333C1.0465 8.72727 0 9.70582 0 10.9091V15.2727C0.00137469 16.2504 0.353238 17.1995 0.999349 17.9682C1.64546 18.7368 2.54851 19.2808 3.56417 19.5131C3.4605 20.0623 3.48662 20.6261 3.64069 21.1649C3.79476 21.7037 4.07305 22.2044 4.45603 22.6319C4.83901 23.0595 5.3174 23.4035 5.85764 23.6398C6.39789 23.8762 6.98689 23.9991 7.58333 24C8.16851 23.9991 8.74667 23.8808 9.27872 23.6529C9.81076 23.4251 10.2843 23.0931 10.6673 22.6794C11.0503 22.2658 11.3339 21.78 11.4989 21.255C11.6638 20.73 11.7063 20.178 11.6235 19.6364H16.3765C16.2937 20.178 16.3362 20.73 16.5011 21.255C16.6661 21.78 16.9497 22.2658 17.3327 22.6794C17.7157 23.0931 18.1892 23.4251 18.7213 23.6529C19.2533 23.8808 19.8315 23.9991 20.4167 24C21.0131 23.9991 21.6021 23.8762 22.1424 23.6398C22.6826 23.4035 23.161 23.0595 23.544 22.6319C23.927 22.2044 24.2052 21.7037 24.3593 21.1649C24.5134 20.6261 24.5395 20.0623 24.4358 19.5131C25.4515 19.2808 26.3545 18.7368 27.0007 17.9682C27.6468 17.1995 27.9986 16.2504 28 15.2727V9.81818C28 6.81055 25.3832 4.36364 22.1667 4.36364ZM25.6667 9.81818V10.9091H19.8333V6.54545H22.1667C24.0963 6.54545 25.6667 8.01382 25.6667 9.81818ZM9.33333 20.1818C9.33333 21.084 8.54817 21.8182 7.58333 21.8182C6.6185 21.8182 5.83333 21.084 5.83333 20.1818C5.83333 19.9756 5.8765 19.7935 5.9395 19.6364H9.22833C9.29133 19.7935 9.3345 19.9756 9.3345 20.1818H9.33333ZM20.4167 21.8182C19.4518 21.8182 18.6667 21.084 18.6667 20.1818C18.6667 19.9756 18.7098 19.7935 18.7728 19.6364H22.0617C22.1247 19.7935 22.1678 19.9756 22.1678 20.1818C22.1678 21.084 21.3815 21.8182 20.4167 21.8182ZM23.3333 17.4545H19.8333V13.0909H25.6667V15.2727C25.6667 16.476 24.6202 17.4545 23.3333 17.4545ZM0 1.09091C0 0.801582 0.122916 0.524105 0.341709 0.31952C0.560501 0.114935 0.857247 0 1.16667 0H10.6797C10.9891 0 11.2858 0.114935 11.5046 0.31952C11.7234 0.524105 11.8463 0.801582 11.8463 1.09091C11.8463 1.38024 11.7234 1.65771 11.5046 1.8623C11.2858 2.06688 10.9891 2.18182 10.6797 2.18182H1.16667C0.857247 2.18182 0.560501 2.06688 0.341709 1.8623C0.122916 1.65771 0 1.38024 0 1.09091ZM0 5.45455C0 5.16522 0.122916 4.88774 0.341709 4.68316C0.560501 4.47857 0.857247 4.36364 1.16667 4.36364H8.34633C8.65575 4.36364 8.9525 4.47857 9.17129 4.68316C9.39008 4.88774 9.513 5.16522 9.513 5.45455C9.513 5.74387 9.39008 6.02135 9.17129 6.22593C8.9525 6.43052 8.65575 6.54545 8.34633 6.54545H1.16667C0.857247 6.54545 0.560501 6.43052 0.341709 6.22593C0.122916 6.02135 0 5.74387 0 5.45455Z" fill="white"/>
</svg>
