
<svg width="285" height="58" viewBox="0 0 285 58" fill="none" xmlns="http://www.w3.org/2000/svg">
<path d="M274.992 17.1312C274.992 8.77548 268.191 2.02832 259.835 2.02832H236.129C227.87 2.02832 221.112 8.63514 220.961 16.8397H227.568C227.719 12.2408 231.53 8.58116 236.129 8.58116H259.835C264.531 8.58116 268.385 12.4351 268.385 17.1312V37.5454H274.992V17.1312Z" fill="#FD3657"/>
<path d="M227.568 23.4358H245.035C248.036 23.4358 250.487 25.7352 250.638 28.6932H227.579V23.4358H220.972V35.2892H251.091C252.549 40.3955 257.245 44.1415 262.858 44.1955V37.5886C259.749 37.5886 257.245 35.0841 257.245 31.9858V28.6824C257.05 22.1295 251.642 16.829 245.046 16.829H227.579V23.4358H227.568Z" fill="#FD3657"/>
<path d="M274.938 37.5449V40.8483C274.938 42.0034 274.83 43.1046 274.593 44.1517H267.738C266.485 47.25 263.43 49.4523 259.835 49.4091H243.426C244.419 48.0057 246.071 47.1097 247.928 47.1097V40.5029C244.678 40.5029 241.721 41.7983 239.518 43.9034C239.518 43.9034 239.507 43.9142 239.497 43.925C236.744 40.1034 232.264 37.5989 227.211 37.5989V44.2057C231.918 44.2057 235.761 48.0597 235.761 52.7557V56.0051H259.824C267.079 56.0051 273.135 50.8989 274.636 44.1517C276.082 44.1517 277.281 45.35 277.281 46.8074H283.888C283.888 41.8523 279.936 37.75 274.938 37.5557V37.5449Z" fill="#FD3657"/>
<path d="M256.878 17.1309C256.878 18.761 258.206 20.078 259.836 20.078C261.466 20.078 262.794 18.761 262.794 17.1309C262.794 15.5008 261.466 14.1837 259.836 14.1837C258.206 14.1837 256.878 15.5008 256.878 17.1309Z" fill="#FD3657"/>
<path d="M1.11255 25.8431C4.21084 25.7459 7.31994 25.638 10.3211 25.638V41.4965H17.9211V25.638C20.9222 25.692 23.9773 25.7351 27.1728 25.8431V19.4954H1.11255V25.8431Z" fill="white"/>
<path d="M43.3758 18.7833C38.723 18.7833 35.2685 19.8305 33.1202 21.8384C30.9719 23.8896 29.8707 26.6856 29.8707 30.2913C29.8707 33.897 30.9719 36.7901 33.1741 38.7981C35.3764 40.7953 38.777 41.7992 43.3327 41.7992C47.8883 41.7992 51.4832 40.7953 53.6423 38.7981C55.7906 36.8009 56.8917 33.9509 56.8917 30.2913C56.8917 26.6316 55.7906 23.8356 53.6423 21.8384C51.494 19.7873 48.0395 18.7833 43.3866 18.7833H43.3758ZM48.277 34.3396C47.273 35.1924 45.6753 35.5918 43.4298 35.6458C41.2275 35.6458 39.6298 35.1924 38.6258 34.3396C37.6219 33.4867 37.1253 32.1373 37.1253 30.3345C37.1253 28.5316 37.6219 27.2362 38.6258 26.3833C39.5758 25.5305 41.1736 25.0771 43.4298 25.0771C45.6861 25.0771 47.2838 25.5305 48.277 26.3833C49.281 27.2362 49.7775 28.5316 49.7775 30.3345C49.7775 32.1373 49.281 33.4867 48.277 34.3396Z" fill="white"/>
<path d="M77.9974 19.4845V27.743H66.8457V19.4845H59.6884C59.8395 23.3817 59.9366 27.0845 59.9366 30.4851C59.9366 33.8856 59.8395 37.5885 59.6884 41.4856H66.8457V33.2271H77.9974V41.4856H85.1548C85.0037 38.0851 84.9497 34.3822 84.9497 30.4851C84.9497 26.5879 85.0037 22.8851 85.1548 19.4845H77.9974Z" fill="white"/>
<path d="M106.162 19.4845V27.743H95.0107V19.4845H87.8533C88.0044 23.3817 88.1016 27.0845 88.1016 30.4851C88.1016 33.8856 88.0044 37.5885 87.8533 41.4856H95.0107V33.2271H106.162V41.4856H113.309C113.169 38.0851 113.115 34.3822 113.115 30.4851C113.115 26.5879 113.169 22.8851 113.309 19.4845H106.162Z" fill="white"/>
<path d="M123.317 19.4417L114.821 41.4968H122.421L123.921 37.1462H133.637C134.285 38.8951 134.782 40.3524 135.181 41.4968H143.04L134.49 19.4417H123.338H123.317ZM131.921 32.4934H125.713C127.063 28.7365 128.11 25.9945 128.812 24.1377L129.567 26.0917C130.366 28.1968 131.165 30.3451 131.921 32.4394V32.4934Z" fill="white"/>
<path d="M173.44 30.7444C172.695 30.345 171.691 30.1399 170.439 30.1399C169.975 30.1399 169.5 30.1722 169.025 30.2694C170.471 29.8268 171.637 29.3626 172.447 28.9416C173.397 28.391 174.055 27.8944 174.358 27.3438C174.703 26.7933 174.865 26.1887 174.865 25.4978C174.865 24.2995 174.412 23.2416 173.462 22.2916C172.512 21.3416 171.205 20.5967 169.554 20.0353C167.902 19.4739 166.056 19.2365 164.005 19.2365C160.809 19.2365 158.197 19.841 156.2 21.0393C154.148 22.2376 152.648 23.8893 151.698 26.0916C154.148 26.437 156.448 27.0955 158.596 27.9376C159.104 26.8364 159.74 25.9836 160.647 25.3899C161.554 24.7853 162.698 24.4938 164.102 24.4938C165.203 24.4938 166.002 24.645 166.498 24.9472C167.006 25.2927 167.243 25.7029 167.243 26.1995C167.243 26.6529 166.736 26.9012 165.797 27.0524C164.847 27.2035 163.594 27.2575 162.04 27.2575H160.637V32.558H162.947C164.285 32.558 165.343 32.612 166.099 32.6552C166.844 32.7524 167.405 32.8603 167.751 33.0546C168.096 33.2597 168.258 33.508 168.258 33.8535C168.258 34.5012 167.805 35.0086 166.909 35.3001C166.002 35.6455 164.858 35.7967 163.454 35.7967C162.051 35.7967 161.058 35.5916 160.302 35.149C159.557 34.7495 158.952 33.9938 158.553 33.0007C157.905 33.3461 157.16 33.7024 156.254 33.9507C155.347 34.1989 154.31 34.5012 153.058 34.8035L151.352 35.2029C153.198 39.6507 157.355 41.8529 163.756 41.8529C165.948 41.8529 167.945 41.6046 169.759 41.0001C171.562 40.3955 173.008 39.5535 174.066 38.4524C175.113 37.2972 175.664 35.9478 175.664 34.3501C175.664 33.6484 175.513 33.0007 175.156 32.3529C174.811 31.7052 174.25 31.1546 173.451 30.7552L173.44 30.7444Z" fill="white"/>
<path d="M196.855 19.4417H185.703L177.207 41.4968H184.807L186.319 37.1462H196.024C196.682 38.8951 197.168 40.3524 197.568 41.4968H205.427L196.877 19.4417H196.855ZM194.253 32.4934H188.046C189.395 28.7365 190.453 25.9945 191.155 24.1377L191.9 26.0917C192.699 28.1968 193.498 30.3451 194.253 32.4394V32.4934Z" fill="white"/>
</svg>
